<!-- Generated by IcoMoon.io -->
<svg version="1.1" xmlns="http://www.w3.org/2000/svg" viewBox="0 0 64 32">
  <path
    fill="#f6c700"
    d="M63.486 2.75c-0.172-1.409-1.218-2.532-2.549-2.75h-58.361c-1.458 0.24-2.575 1.563-2.575 3.159v25.643c0 1.767 1.366 3.199 3.052 3.199h57.407c1.552 0 2.834-1.216 3.026-2.789v-26.461z"
  ></path>
  <path fill="#000" d="M7.657 6.43h5.038v19.393h-5.038v-19.393z"></path>
  <path
    fill="#000"
    d="M22.214 15.364c-0.433-2.956-0.674-4.599-0.721-4.926-0.211-1.582-0.412-2.959-0.604-4.134h-6.532v19.393h4.413l0.015-12.805 1.857 12.805h3.143l1.761-13.090 0.017 13.090h4.399v-19.393h-6.581l-1.167 9.060z"
  ></path>
  <path
    fill="#000"
    d="M38.28 10.338c0.055 0.247 0.084 0.808 0.084 1.685v7.519c0 1.291-0.084 2.081-0.251 2.373-0.168 0.291-0.614 0.436-1.337 0.436v-12.73c0.549 0 0.923 0.059 1.122 0.173 0.199 0.116 0.327 0.297 0.382 0.544zM40.556 25.499c0.6-0.131 1.103-0.363 1.511-0.693 0.407-0.331 0.693-0.789 0.857-1.376 0.164-0.585 0.262-1.748 0.262-3.487v-6.81c0-1.835-0.072-3.065-0.183-3.69-0.113-0.626-0.392-1.195-0.839-1.705-0.448-0.51-1.102-0.877-1.961-1.1-0.86-0.223-2.262-0.336-4.701-0.336h-3.758v19.393h6.103c1.407-0.044 2.31-0.109 2.709-0.198z"
  ></path>
  <path
    fill="#000"
    d="M51.314 22.601c-0.093 0.246-0.499 0.371-0.806 0.371-0.3 0-0.5-0.119-0.602-0.359-0.102-0.238-0.151-0.783-0.151-1.635v-5.125c0-0.883 0.044-1.434 0.134-1.654 0.088-0.217 0.283-0.328 0.583-0.328 0.307 0 0.719 0.125 0.825 0.375 0.105 0.251 0.158 0.786 0.158 1.606v4.97c-0.032 1.021-0.078 1.614-0.14 1.779zM44.901 25.528h4.536c0.189-0.741 0.293-1.153 0.314-1.235 0.411 0.497 0.862 0.87 1.358 1.117 0.494 0.248 1.232 0.372 1.804 0.372 0.796 0 1.483-0.209 2.062-0.627 0.579-0.417 0.947-0.912 1.104-1.481 0.157-0.57 0.235-1.435 0.235-2.599v-5.441c0-1.17-0.026-1.934-0.078-2.293s-0.206-0.724-0.464-1.099c-0.257-0.374-0.632-0.665-1.122-0.872s-1.069-0.311-1.736-0.311c-0.58 0-1.322 0.116-1.816 0.344-0.494 0.229-0.942 0.575-1.344 1.040v-6.309h-4.854v19.393z"
  ></path>
</svg>
